<svg width="31" height="30" viewBox="0 0 31 30" fill="none" xmlns="http://www.w3.org/2000/svg">
<path fill-rule="evenodd" clip-rule="evenodd" d="M15.5099 3C8.86875 3 3.5 8.40833 3.5 15.0992C3.5 20.4475 6.93994 24.9748 11.7121 26.5771C12.3087 26.6976 12.5272 26.3168 12.5272 25.9965C12.5272 25.716 12.5076 24.7545 12.5076 23.7527C9.1667 24.474 8.47099 22.3104 8.47099 22.3104C7.93409 20.9082 7.13858 20.5478 7.13858 20.5478C6.04511 19.8066 7.21823 19.8066 7.21823 19.8066C8.43117 19.8868 9.06763 21.0486 9.06763 21.0486C10.1412 22.8913 11.8711 22.3707 12.5671 22.0501C12.6664 21.2688 12.9847 20.728 13.3228 20.4276C10.6582 20.1471 7.85469 19.1055 7.85469 14.458C7.85469 13.1359 8.3316 12.0543 9.08729 11.213C8.96807 10.9126 8.5504 9.67043 9.20677 8.00787C9.20677 8.00787 10.2208 7.6873 12.5073 9.24981C13.4863 8.98497 14.4958 8.85024 15.5099 8.84911C16.524 8.84911 17.5577 8.98948 18.5123 9.24981C20.799 7.6873 21.8131 8.00787 21.8131 8.00787C22.4695 9.67043 22.0515 10.9126 21.9323 11.213C22.7079 12.0543 23.1652 13.1359 23.1652 14.458C23.1652 19.1055 20.3617 20.1269 17.6772 20.4276C18.1148 20.8081 18.4924 21.5292 18.4924 22.6711C18.4924 24.2936 18.4727 25.5957 18.4727 25.9962C18.4727 26.3168 18.6915 26.6976 19.2879 26.5774C24.06 24.9745 27.4999 20.4475 27.4999 15.0992C27.5196 8.40833 22.1312 3 15.5099 3Z" fill="#F7813F"/>
</svg>
