<svg width="31" height="30" viewBox="0 0 31 30" fill="none" xmlns="http://www.w3.org/2000/svg">
<path d="M23.494 8.77765C22.5006 8.7796 21.6929 7.97525 21.6909 6.98185C21.689 5.98845 22.4933 5.18071 23.4872 5.17877C24.4811 5.17683 25.2888 5.98164 25.2907 6.97505C25.2922 7.96845 24.4879 8.77571 23.494 8.77765Z" fill="#F7813F"/>
<path fill-rule="evenodd" clip-rule="evenodd" d="M15.5143 22.7013C11.2614 22.7095 7.80638 19.2686 7.79813 15.0146C7.78985 10.7615 11.2317 7.30602 15.4847 7.29775C19.7387 7.28949 23.1941 10.7324 23.2024 14.9849C23.2107 19.239 19.7678 22.693 15.5143 22.7013ZM15.49 10.0004C12.7296 10.0053 10.4949 12.2482 10.4998 15.0092C10.5051 17.7707 12.7485 20.0049 15.509 19.9996C18.2705 19.9942 20.5051 17.7518 20.4997 14.9903C20.4944 12.2288 18.251 9.9951 15.49 10.0004Z" fill="#F7813F"/>
<path fill-rule="evenodd" clip-rule="evenodd" d="M5.649 0.808099C6.60158 0.434845 7.69167 0.179203 9.28769 0.103873C10.8876 0.0270908 11.3984 0.00958878 15.4711 0.00181578C19.5448 -0.00595722 20.0555 0.00958577 21.6554 0.0805418C23.252 0.149554 24.3426 0.401311 25.2971 0.77068C26.2846 1.15122 27.1225 1.66348 27.9574 2.49503C28.7924 3.32756 29.3066 4.16253 29.692 5.14863C30.0647 6.10218 30.3204 7.19132 30.3962 8.78834C30.472 10.3878 30.4905 10.8981 30.4982 14.9713C30.506 19.0441 30.4895 19.5553 30.4195 21.1563C30.35 22.7518 30.0988 23.8429 29.7294 24.7969C29.3479 25.7845 28.8366 26.6224 28.005 27.4573C27.1735 28.2928 26.3376 28.8065 25.3515 29.1924C24.3979 29.5647 23.3088 29.8203 21.7128 29.8966C20.1129 29.9724 19.6021 29.9904 15.528 29.9982C11.4557 30.006 10.945 29.9904 9.34506 29.9199C7.74853 29.85 6.65746 29.5987 5.70344 29.2298C4.71589 28.8478 3.87803 28.337 3.04307 27.505C2.20764 26.6729 1.69298 25.8375 1.30807 24.8514C0.934822 23.8983 0.680134 22.8087 0.603841 21.2131C0.527545 19.6127 0.509569 19.1014 0.501799 15.0287C0.493999 10.9554 0.510046 10.4451 0.580021 8.84519C0.6505 7.24819 0.900796 6.15758 1.27016 5.20257C1.65166 4.21549 2.16293 3.3781 2.99546 2.54266C3.827 1.70771 4.66291 1.19252 5.649 0.808099ZM6.67692 26.7099C7.20617 26.9135 8.00028 27.1565 9.46268 27.2202C11.0451 27.2887 11.5189 27.3038 15.5231 27.296C19.5287 27.2887 20.0026 27.2717 21.5845 27.1973C23.0454 27.1278 23.8395 26.8819 24.3673 26.6758C25.0677 26.4022 25.5663 26.0751 26.0902 25.5507C26.6141 25.0244 26.9383 24.5243 27.2095 23.8239C27.4136 23.2942 27.6561 22.4996 27.7198 21.0372C27.7893 19.4557 27.8038 18.9814 27.7961 14.9762C27.7888 10.972 27.7718 10.4976 27.6965 8.91567C27.6274 7.45424 27.382 6.6601 27.1754 6.13279C26.9018 5.43149 26.5757 4.93382 26.0499 4.40941C25.524 3.88501 25.0239 3.56181 24.3226 3.29062C23.7943 3.08602 22.9992 2.84398 21.5378 2.78032C19.9554 2.71082 19.4811 2.69671 15.476 2.7045C11.4718 2.71227 10.9979 2.72831 9.41601 2.80316C7.95412 2.87265 7.16096 3.11808 6.63218 3.32465C5.93234 3.59826 5.43371 3.9234 4.90932 4.44975C4.38588 4.97609 4.06172 5.47522 3.79055 6.17702C3.58741 6.7058 3.34293 7.5009 3.28025 8.96233C3.21122 10.5448 3.19666 11.0191 3.20443 15.0233C3.21173 19.0285 3.22873 19.5029 3.30309 21.0838C3.37162 22.5462 3.61898 23.3394 3.82457 23.8687C4.09818 24.568 4.4243 25.0667 4.94966 25.5911C5.47601 26.1135 5.9761 26.4387 6.67692 26.7099Z" fill="#F7813F"/>
</svg>
