<svg width="31" height="30" viewBox="0 0 31 30" fill="none" xmlns="http://www.w3.org/2000/svg">
<g clip-path="url(#clip0_618_1071)">
<path fill-rule="evenodd" clip-rule="evenodd" d="M28.9332 6.04246C29.3986 6.51092 29.7329 7.09341 29.9025 7.73164C30.5298 10.0873 30.5298 14.9998 30.5298 14.9998C30.5298 14.9998 30.5298 19.9123 29.9025 22.268C29.7329 22.9062 29.3986 23.4887 28.9332 23.9572C28.4677 24.4256 27.8874 24.7636 27.2502 24.9373C24.9048 25.568 15.5298 25.568 15.5298 25.568C15.5298 25.568 6.15479 25.568 3.80933 24.9373C3.1722 24.7636 2.59186 24.4256 2.12639 23.9572C1.66093 23.4887 1.32667 22.9062 1.15706 22.268C0.529785 19.9123 0.529785 14.9998 0.529785 14.9998C0.529785 14.9998 0.529785 10.0873 1.15706 7.73164C1.32667 7.09341 1.66093 6.51092 2.12639 6.04246C2.59186 5.574 3.1722 5.23602 3.80933 5.06232C6.15479 4.43164 15.5298 4.43164 15.5298 4.43164C15.5298 4.43164 24.9048 4.43164 27.2502 5.06232C27.8874 5.23602 28.4677 5.574 28.9332 6.04246ZM20.3025 14.9999L12.4616 10.5391V19.4607L20.3025 14.9999Z" fill="#F7813F"/>
</g>
<defs>
<clipPath id="clip0_618_1071">
<rect width="30" height="30" fill="white" transform="translate(0.5)"/>
</clipPath>
</defs>
</svg>
