<svg width="31" height="30" viewBox="0 0 31 30" fill="none" xmlns="http://www.w3.org/2000/svg">
<path d="M15.5 0C23.7842 0 30.5 6.71574 30.5 15C30.5 22.669 24.7444 28.993 17.3173 29.8901V19.5837L21.3751 19.5837L22.2168 15H17.3173V13.3789C17.3173 12.1677 17.5548 11.3292 18.0998 10.7935C18.6449 10.2578 19.4973 10.0249 20.7271 10.0249C21.0384 10.0249 21.3249 10.028 21.5791 10.0342C21.9488 10.0432 22.2502 10.0588 22.46 10.0808V5.9256C22.3762 5.9023 22.2772 5.87901 22.1663 5.85608C21.9151 5.80413 21.6028 5.75405 21.267 5.71008C20.5654 5.61817 19.7616 5.55288 19.1992 5.55288C16.928 5.55288 15.2115 6.03878 14.0134 7.04524C12.5674 8.25989 11.8764 10.2328 11.8764 13.0248V15H8.78323V19.5837H11.8764V29.5583C5.3429 27.9373 0.5 22.0347 0.5 15C0.5 6.71574 7.21574 0 15.5 0Z" fill="#F7813F"/>
</svg>
