<svg width="31" height="18" viewBox="0 0 31 18" fill="none" xmlns="http://www.w3.org/2000/svg">
<path d="M8.96105 17.319C13.6337 17.319 17.4218 13.498 17.4218 8.78463C17.4218 4.07123 13.634 0.25 8.96105 0.25C4.28812 0.25 0.5 4.07209 0.5 8.78463C0.5 13.4972 4.28841 17.319 8.96105 17.319Z" fill="#F7813F"/>
<path d="M26.7035 8.78465C26.7035 13.2213 24.8095 16.8193 22.473 16.8193C20.1365 16.8193 18.2425 13.2213 18.2425 8.78465C18.2425 4.348 20.1362 0.749954 22.4727 0.749954C24.8092 0.749954 26.7035 4.34685 26.7035 8.78465Z" fill="#F7813F"/>
<path d="M30.5 8.78464C30.5 12.7588 29.8339 15.9825 29.0121 15.9825C28.1903 15.9825 27.5245 12.7597 27.5245 8.78464C27.5245 4.80963 28.1905 1.58682 29.0121 1.58682C29.8337 1.58682 30.5 4.80934 30.5 8.78464Z" fill="#F7813F"/>
</svg>
